<svg width="28" height="28" viewBox="0 0 28 28" fill="none" xmlns="http://www.w3.org/2000/svg">
<rect width="28" height="28" rx="14" fill="white"/>
<path fill-rule="evenodd" clip-rule="evenodd" d="M6.33426 13.8519C10.4155 12.0738 13.137 10.9015 14.4987 10.3352C18.3867 8.71802 19.1946 8.43711 19.7211 8.42783C19.837 8.42579 20.0959 8.4545 20.2636 8.5906C20.4053 8.70553 20.4443 8.86078 20.4629 8.96974C20.4815 9.0787 20.5048 9.32692 20.4863 9.52087C20.2756 11.7346 19.364 17.1067 18.9002 19.5861C18.7039 20.6353 18.3175 20.9871 17.9434 21.0215C17.1304 21.0963 16.513 20.4842 15.7256 19.968C14.4934 19.1603 13.7973 18.6575 12.6013 17.8693C11.219 16.9585 12.1151 16.4578 12.9028 15.6396C13.109 15.4255 16.6911 12.1673 16.7604 11.8717C16.7691 11.8348 16.7771 11.697 16.6953 11.6242C16.6134 11.5515 16.4926 11.5763 16.4054 11.5961C16.2818 11.6242 14.3134 12.9252 10.5001 15.4993C9.9414 15.883 9.43532 16.0699 8.98189 16.0601C8.48201 16.0493 7.52046 15.7775 6.80564 15.5451C5.92889 15.2601 5.23207 15.1094 5.29275 14.6254C5.32435 14.3733 5.67152 14.1155 6.33426 13.8519Z" fill="#161620"/>
</svg>
