<svg width="28" height="28" viewBox="0 0 28 28" fill="none" xmlns="http://www.w3.org/2000/svg">
<rect width="28" height="28" rx="14" fill="white"/>
<path d="M23.5899 9.1913C23.3592 8.33455 22.6837 7.65904 21.8269 7.42837C20.2617 7 14.0009 7 14.0009 7C14.0009 7 7.74003 7 6.17482 7.4119C5.33455 7.64256 4.64256 8.33455 4.4119 9.1913C4 10.7565 4 14.0023 4 14.0023C4 14.0023 4 17.2645 4.4119 18.8132C4.64256 19.67 5.31807 20.3455 6.17482 20.5762C7.75651 21.0045 14.0009 21.0045 14.0009 21.0045C14.0009 21.0045 20.2617 21.0045 21.8269 20.5926C22.6837 20.362 23.3592 19.6865 23.5899 18.8297C24.0018 17.2645 24.0018 14.0187 24.0018 14.0187C24.0018 14.0187 24.0182 10.7565 23.5899 9.1913Z" fill="#161620"/>
<path d="M12.0078 17.0011L17.2142 14.0025L12.0078 11.0039V17.0011Z" fill="white"/>
</svg>
